<svg width="20" height="20" viewBox="0 0 20 20" fill="none" xmlns="http://www.w3.org/2000/svg">
<path d="M2.05394 7.78642C1.84682 7.78642 1.65781 7.61854 1.66734 7.39908C1.7231 6.11402 1.87933 5.27744 2.31706 4.61566C2.56889 4.23493 2.8817 3.90378 3.24135 3.63719C4.21345 2.91663 5.58482 2.91663 8.32754 2.91663H11.6731C14.4159 2.91663 15.7872 2.91663 16.7593 3.63719C17.119 3.90378 17.4318 4.23493 17.6836 4.61566C18.1213 5.27737 18.2775 6.11383 18.3333 7.39865C18.3429 7.61836 18.1536 7.78642 17.9462 7.78642C16.7914 7.78642 15.8553 8.77745 15.8553 9.99996C15.8553 11.2225 16.7914 12.2135 17.9462 12.2135C18.1536 12.2135 18.3429 12.3816 18.3333 12.6013C18.2775 13.8861 18.1213 14.7226 17.6836 15.3843C17.4318 15.765 17.119 16.0961 16.7593 16.3627C15.7872 17.0833 14.4159 17.0833 11.6731 17.0833H8.32754C5.58482 17.0833 4.21345 17.0833 3.24135 16.3627C2.8817 16.0961 2.56889 15.765 2.31706 15.3843C1.87933 14.7225 1.7231 13.8859 1.66734 12.6008C1.65781 12.3814 1.84682 12.2135 2.05394 12.2135C3.20876 12.2135 4.14492 11.2225 4.14492 9.99996C4.14492 8.77745 3.20876 7.78642 2.05394 7.78642Z" stroke="#FF8200" stroke-width="1.5" stroke-linejoin="round"/>
<path d="M7.91699 12.0833L12.0837 7.91663" stroke="#FF8200" stroke-width="1.5" stroke-linecap="round" stroke-linejoin="round"/>
<path d="M7.91699 7.91663H7.92635M12.0743 12.0833H12.0837" stroke="#FF8200" stroke-width="2" stroke-linecap="round" stroke-linejoin="round"/>
</svg>
