<svg width="11" height="10" viewBox="0 0 11 10" fill="none" xmlns="http://www.w3.org/2000/svg">
<path d="M8.46596 8.70223C8.5159 8.91103 8.28267 9.07526 8.09388 8.96432M8.46596 8.70223L7.74578 5.69765L10.1491 3.67797C10.3159 3.53796 10.2265 3.272 10.0067 3.25359M8.46596 8.70223L8.21224 8.76292L8.21162 8.76307L7.97968 8.81855L7.97973 8.81878L8.21153 8.76322L8.21215 8.76307L8.46596 8.70223ZM8.09388 8.96432L5.14074 0.148243C5.22664 -0.0494142 5.51481 -0.0494142 5.60072 0.148243L6.83831 2.98956L10.0067 3.25359M8.09388 8.96432L5.37098 7.37144L2.64807 8.96432C2.45878 9.07478 2.22605 8.91055 2.27599 8.70223M8.09388 8.96432L2.27599 8.70223M10.0067 3.25359L9.9874 3.48537L9.98738 3.48559L9.96519 3.75186L9.96497 3.75184M10.0067 3.25359L9.9873 3.48526L9.98728 3.48548L9.96497 3.75184M9.96497 3.75184C9.86375 3.74336 9.77937 3.67025 9.74884 3.5793C9.7178 3.48684 9.74093 3.36792 9.82737 3.29519M9.96497 3.75184L9.82737 3.29519M9.82737 3.29519L9.82761 3.29499L9.82737 3.29519ZM2.27599 8.70223L2.99617 5.69765L0.592402 3.67748M2.27599 8.70223L0.592402 3.67748M0.592402 3.67748C0.425591 3.53748 0.51449 3.27151 0.73474 3.2531L0.592402 3.67748ZM4.36153 3.18877L5.37071 0.872265L6.37991 3.18923L6.49917 3.46303L6.79679 3.48783L9.34542 3.70021L7.4241 5.31488L7.18752 5.51369L7.25955 5.8142L7.8402 8.23665L5.62345 6.93986L5.37098 6.79217L5.11851 6.93986L2.90175 8.23665L3.4824 5.8142L3.55443 5.5137L3.31786 5.31488L1.39602 3.69973L3.94466 3.48735L4.24226 3.46255L4.36153 3.18877ZM2.76221 8.8188L2.76222 8.81878L2.76221 8.8188Z" stroke="#ECA61B"/>
</svg>
